<svg id="Layer_1" data-name="Layer 1" xmlns="http://www.w3.org/2000/svg" viewBox="0 0 1078 1078"><defs><style>.cls-1{fill:none;stroke:#fff;stroke-miterlimit:10;}</style></defs><rect class="cls-1" x="0.5" y="0.5" width="1077" height="1077"/><path d="M701.53,458.81a222.91,222.91,0,0,1-1.9,28.64l1.13-8.43a215.51,215.51,0,0,1-14.86,54.65l3.2-7.58a216.87,216.87,0,0,1-27.91,47.8l5-6.42a217.91,217.91,0,0,1-38.89,38.89l6.42-5a216.48,216.48,0,0,1-47.8,27.91l7.58-3.2A215.53,215.53,0,0,1,538.81,641l8.43-1.14a218.8,218.8,0,0,1-57.28,0L498.4,641a215.31,215.31,0,0,1-54.65-14.87l7.58,3.2a216.77,216.77,0,0,1-47.81-27.91l6.42,5a217.91,217.91,0,0,1-38.89-38.89l5,6.42a216.87,216.87,0,0,1-27.91-47.8l3.2,7.58A215.51,215.51,0,0,1,336.44,479l1.13,8.43a218.8,218.8,0,0,1,0-57.28l-1.13,8.44A215.4,215.4,0,0,1,351.3,384l-3.2,7.58A217.17,217.17,0,0,1,376,343.73l-5,6.42a218.57,218.57,0,0,1,38.89-38.89l-6.42,5a217.17,217.17,0,0,1,47.81-27.91l-7.58,3.2a215.29,215.29,0,0,1,54.65-14.86L490,277.78a219.67,219.67,0,0,1,57.28,0l-8.43-1.13a215.51,215.51,0,0,1,54.65,14.86l-7.58-3.2a216.87,216.87,0,0,1,47.8,27.91l-6.42-5a218.57,218.57,0,0,1,38.89,38.89l-5-6.42a217.17,217.17,0,0,1,27.91,47.81L685.9,384a215.4,215.4,0,0,1,14.86,54.65l-1.13-8.44a223,223,0,0,1,1.9,28.64,32.74,32.74,0,0,0,9.29,22.44,35.28,35.28,0,0,0,22.43,9.29c8.21-.37,16.72-3.06,22.44-9.29s9.3-13.84,9.29-22.44a273,273,0,0,0-3.79-42.32,214.2,214.2,0,0,0-7.8-32.48c-7.52-23.17-18.24-45.64-32.37-65.51a270.91,270.91,0,0,0-25.44-31.09c-9.35-9.7-19.64-18.14-30.32-26.32-19.46-14.9-41.28-26-64.25-34.44a213.75,213.75,0,0,0-32-9,270.29,270.29,0,0,0-42-5.07A216.92,216.92,0,0,0,492.31,214c-13.79,1.68-27.41,3.86-40.79,7.65a268.39,268.39,0,0,0-38.23,14.48,215.57,215.57,0,0,0-28.49,15.78c-20.23,13.3-39,29.34-54.4,48.06a270.13,270.13,0,0,0-23.34,32.43c-7,11.66-12.56,23.94-17.72,36.51-9.54,23.25-14.53,48-16.47,73a216.84,216.84,0,0,0,.1,34.85A270.48,270.48,0,0,0,279.4,518a215.63,215.63,0,0,0,10.38,31.71c5.18,12.46,10.72,24.62,17.72,36.17a270.31,270.31,0,0,0,23.61,32.57A216.24,216.24,0,0,0,353.8,641.9c18.14,16.08,38.4,30,60.53,40a267.28,267.28,0,0,0,38,14.25c13.48,3.76,27.24,5.93,41.12,7.55,25.45,3,51.32,1.12,76.39-4a213.31,213.31,0,0,0,32.21-9.22,267.79,267.79,0,0,0,36.77-16.67c11.81-6.58,22.62-14.4,33.28-22.67a218.82,218.82,0,0,0,24.22-21.82,270.63,270.63,0,0,0,25.15-31,214.07,214.07,0,0,0,16.81-28.16c11-22.17,19.31-45.79,23.06-70.31A274.38,274.38,0,0,0,765,458.81a32.74,32.74,0,0,0-9.29-22.43,35.27,35.27,0,0,0-22.44-9.29c-8.2.36-16.71,3.06-22.43,9.29S701.54,450.21,701.53,458.81Z" transform="translate(0.5 0.5)"/><path d="M694.36,327.92l6.27-6.26,17-17.06,25.23-25.23,30.78-30.78,33.72-33.72,34-34,31.75-31.74L900,122.26l19.3-19.3q4.57-4.58,9.15-9.15l.39-.4a23.72,23.72,0,0,0,6.56-10.21A23.91,23.91,0,0,0,938.17,71a23.93,23.93,0,0,0-2.74-12.23,23.72,23.72,0,0,0-6.56-10.21c-6-5.55-14-9.67-22.43-9.29L898,40.38a31.78,31.78,0,0,0-14,8.16l-6.26,6.27-17.06,17L835.45,97.09l-30.78,30.78L771,161.59l-34,34-31.74,31.74-26.83,26.83L659,273.51c-3,3.05-6.12,6.09-9.16,9.15l-.39.4a23.76,23.76,0,0,0-6.56,10.21,28.71,28.71,0,0,0,0,24.44,23.76,23.76,0,0,0,6.56,10.21c6,5.56,14,9.68,22.43,9.3l8.44-1.14a31.59,31.59,0,0,0,14-8.16Z" transform="translate(0.5 0.5)"/><path d="M937.94,228.06V90.11c0-6.36,0-12.73,0-19.1v-.26a23.88,23.88,0,0,0-2.73-12.22,23.85,23.85,0,0,0-6.56-10.22,23.88,23.88,0,0,0-10.21-6.56A24,24,0,0,0,906.21,39l-8.43,1.14a31.61,31.61,0,0,0-14,8.15c-5.7,6.21-9.29,13.84-9.29,22.44v138c0,6.37,0,12.74,0,19.1v.26a23.82,23.82,0,0,0,2.73,12.23A28.53,28.53,0,0,0,894,257.06a23.78,23.78,0,0,0,12.22,2.73l8.44-1.13a31.78,31.78,0,0,0,14-8.16c5.7-6.21,9.29-13.84,9.29-22.44Z" transform="translate(0.5 0.5)"/><path d="M741,102.48H885.85c6.69,0,13.39,0,20.08,0h.28a23.93,23.93,0,0,0,12.23-2.74,23.78,23.78,0,0,0,10.21-6.56A23.76,23.76,0,0,0,935.21,83a23.88,23.88,0,0,0,2.73-12.22l-1.13-8.43a31.75,31.75,0,0,0-8.16-14C922.44,42.62,914.81,39,906.21,39H761.33c-6.7,0-13.39-.05-20.08,0H741a24,24,0,0,0-12.23,2.73,23.88,23.88,0,0,0-10.21,6.56A23.85,23.85,0,0,0,712,58.53a23.78,23.78,0,0,0-2.73,12.22l1.13,8.43a31.67,31.67,0,0,0,8.16,14c6.21,5.7,13.84,9.3,22.44,9.3Z" transform="translate(0.5 0.5)"/><path d="M487.15,673.57V967.8c0,4,0,8,0,12v.51a30.62,30.62,0,0,0,19.5,29,23.91,23.91,0,0,0,12.22,2.74l8.44-1.14a31.78,31.78,0,0,0,14-8.16c5.7-6.2,9.29-13.84,9.29-22.43V686c0-4,0-8,0-11.95v-.51a30.62,30.62,0,0,0-19.5-29,23.93,23.93,0,0,0-12.23-2.74L510.44,643a31.59,31.59,0,0,0-14,8.16c-5.7,6.2-9.29,13.83-9.29,22.43Z" transform="translate(0.5 0.5)"/><path d="M385.36,898.31H642.79c3.49,0,7,0,10.48,0h.45a30.65,30.65,0,0,0,29-19.51,23.78,23.78,0,0,0,2.73-12.22l-1.13-8.44a31.78,31.78,0,0,0-8.16-14c-6.21-5.69-13.84-9.29-22.43-9.29H396.28c-3.49,0-7,0-10.48,0h-.44a35.27,35.27,0,0,0-22.44,9.29,35.27,35.27,0,0,0-9.29,22.44l1.13,8.43a31.72,31.72,0,0,0,8.16,14c6.21,5.7,13.84,9.3,22.44,9.3Z" transform="translate(0.5 0.5)"/></svg>