<svg id="Layer_1" data-name="Layer 1" xmlns="http://www.w3.org/2000/svg" viewBox="0 0 503.77 503.91"><path d="M648.17,554.55a166.94,166.94,0,0,1-1.44,21.66l.86-6.38a162.89,162.89,0,0,1-11.24,41.34l2.42-5.73a164.13,164.13,0,0,1-21.12,36.16l3.76-4.86A165.18,165.18,0,0,1,592,666.16l4.85-3.75a163.86,163.86,0,0,1-36.16,21.11l5.74-2.42a163.43,163.43,0,0,1-41.34,11.25l6.38-.86a166.27,166.27,0,0,1-43.33,0l6.38.86a163.32,163.32,0,0,1-41.34-11.25l5.73,2.42a164.09,164.09,0,0,1-36.16-21.11l4.86,3.75a164.52,164.52,0,0,1-29.42-29.42l3.75,4.86a164.09,164.09,0,0,1-21.11-36.16l2.42,5.73A162.89,162.89,0,0,1,372,569.83l.85,6.38a166.27,166.27,0,0,1,0-43.33l-.85,6.38a163,163,0,0,1,11.24-41.34l-2.42,5.74a163.86,163.86,0,0,1,21.11-36.16l-3.75,4.85a164.8,164.8,0,0,1,29.42-29.41l-4.86,3.75a163.7,163.7,0,0,1,36.16-21.11L453.17,428a163.3,163.3,0,0,1,41.34-11.24l-6.38.86a165.4,165.4,0,0,1,43.33,0l-6.38-.86A163.41,163.41,0,0,1,566.42,428l-5.74-2.41a163.47,163.47,0,0,1,36.16,21.11L592,442.94a165.46,165.46,0,0,1,29.42,29.41l-3.76-4.85a163.9,163.9,0,0,1,21.12,36.16l-2.42-5.74a163,163,0,0,1,11.24,41.34l-.86-6.38a167.09,167.09,0,0,1,1.44,21.67,24.76,24.76,0,0,0,7,17,26.77,26.77,0,0,0,17,7c6.2-.28,12.64-2.32,17-7a25,25,0,0,0,7-17,207.11,207.11,0,0,0-2.87-32A163.34,163.34,0,0,0,687.4,498a183.36,183.36,0,0,0-24.49-49.55,204.78,204.78,0,0,0-19.25-23.52A201.26,201.26,0,0,0,620.73,405c-14.72-11.27-31.22-19.67-48.6-26.05a161.4,161.4,0,0,0-24.21-6.79,204,204,0,0,0-31.73-3.84,165,165,0,0,0-26.29,1.08,203.27,203.27,0,0,0-30.85,5.79,201,201,0,0,0-28.92,11,161.65,161.65,0,0,0-21.55,11.93,184.36,184.36,0,0,0-41.15,36.36,177.73,177.73,0,0,0-31.06,52.14c-7.21,17.59-11,36.34-12.46,55.26a165.7,165.7,0,0,0,.07,26.36,203.93,203.93,0,0,0,4.87,31.17,162.35,162.35,0,0,0,7.85,24,201,201,0,0,0,13.41,27.37A204.4,204.4,0,0,0,368,675.34,163.92,163.92,0,0,0,385.13,693c13.72,12.17,29.05,22.73,45.79,30.29a176.42,176.42,0,0,0,59.87,16.49c19.25,2.25,38.82.85,57.78-3a161,161,0,0,0,24.37-7,203.52,203.52,0,0,0,27.82-12.61,199,199,0,0,0,25.17-17.15,164.74,164.74,0,0,0,18.32-16.51,205.52,205.52,0,0,0,19-23.42A163.59,163.59,0,0,0,676,638.87c8.34-16.77,14.61-34.64,17.44-53.19a208.25,208.25,0,0,0,2.74-31.13,24.8,24.8,0,0,0-7-17,26.78,26.78,0,0,0-17-7c-6.21.28-12.65,2.32-17,7A24.93,24.93,0,0,0,648.17,554.55Z" transform="translate(-323.42 -236.99)"/><path d="M642.74,455.54l4.74-4.74,12.91-12.9,19.08-19.09,23.29-23.28L728.26,370,754,344.27l24-24L798.32,300l14.6-14.6q3.47-3.45,6.92-6.92l.3-.3a17.91,17.91,0,0,0,5-7.72,21.7,21.7,0,0,0,0-18.5,17.91,17.91,0,0,0-5-7.72c-4.57-4.2-10.58-7.32-17-7l-6.38.86a24,24,0,0,0-10.59,6.17l-4.74,4.74-12.9,12.9-19.09,19.09-23.28,23.28-25.51,25.51-25.75,25.75-24,24-20.3,20.3L616,414.38c-2.3,2.3-4.62,4.6-6.92,6.92l-.3.3a26.72,26.72,0,0,0-7,17,26.78,26.78,0,0,0,7,17c4.58,4.2,10.58,7.31,17,7l6.38-.86a24,24,0,0,0,10.59-6.17Z" transform="translate(-323.42 -236.99)"/><path d="M827,380V275.65c0-4.82,0-9.64,0-14.45V261a18.07,18.07,0,0,0-2.07-9.25A24.67,24.67,0,0,0,803,237l-6.38.86A23.87,23.87,0,0,0,786,244a25,25,0,0,0-7,17V365.35c0,4.82,0,9.64,0,14.45v.2a26.72,26.72,0,0,0,7,17,26.72,26.72,0,0,0,17,7l6.38-.86A23.87,23.87,0,0,0,820,397a25,25,0,0,0,7-17Z" transform="translate(-323.42 -236.99)"/><path d="M678.32,286.39l12.44-.14,29.75-.33,36.1-.4,31.08-.35c5-.06,10.06-.08,15.1-.17H803a23.17,23.17,0,0,0,21.93-14.75A18.07,18.07,0,0,0,827,261l-.86-6.38A23.87,23.87,0,0,0,820,244c-4.67-4.28-10.49-7.1-17-7l-12.44.14-29.75.33-36.1.4-31.07.35c-5,.06-10.07.08-15.11.17h-.21a23.15,23.15,0,0,0-21.93,14.76,18.14,18.14,0,0,0-2.07,9.24l.86,6.38a24,24,0,0,0,6.17,10.59c4.67,4.29,10.49,7.11,17,7Z" transform="translate(-323.42 -236.99)"/></svg>