<?xml version="1.0" encoding="utf-8"?>
<!-- Generator: Adobe Illustrator 25.4.1, SVG Export Plug-In . SVG Version: 6.00 Build 0)  -->
<svg version="1.1" xmlns="http://www.w3.org/2000/svg" xmlns:xlink="http://www.w3.org/1999/xlink" x="0px" y="0px"
	 viewBox="0 0 512 512" style="enable-background:new 0 0 512 512;" xml:space="preserve">
<style type="text/css">
	.st0{display:none;}
	.st1{display:inline;fill:url(#SVGID_1_);}
	.st2{display:inline;fill:url(#SVGID_00000005952678714658102920000009612960467070220674_);}
	.st3{fill:#88A0E2;}
	.st4{fill:#B0C3EA;}
	.st5{fill:#7B93C6;}
	.st6{fill:#5F739B;}
</style>
<g id="Layer_2" class="st0">
	<linearGradient id="SVGID_1_" gradientUnits="userSpaceOnUse" x1="0.75" y1="256.25" x2="512.75" y2="256.25">
		<stop  offset="1.219411e-03" style="stop-color:#F2F2F2"/>
		<stop  offset="1" style="stop-color:#FCFCFC"/>
	</linearGradient>
	<path class="st1" d="M432.8,512.2h-352c-44,0-80-36-80-80v-352c0-44,36-80,80-80h352c44,0,80,36,80,80v352
		C512.8,476.2,476.8,512.2,432.8,512.2z"/>
	
		<linearGradient id="SVGID_00000101073086262911106480000007102827976701043858_" gradientUnits="userSpaceOnUse" x1="160.299" y1="142.197" x2="465.7274" y2="503.3652">
		<stop  offset="0" style="stop-color:#E6E6E6"/>
		<stop  offset="1" style="stop-color:#CCCCCC"/>
	</linearGradient>
	<path style="display:inline;fill:url(#SVGID_00000101073086262911106480000007102827976701043858_);" d="M413.2,492.8h-313
		c-44,0-80-36-80-80v-313c0-44,36-80,80-80h313c44,0,80,36,80,80v313C493.2,456.8,457.2,492.8,413.2,492.8z"/>
</g>
<g id="Layer_1">
	<path class="st3" d="M8.3,81.1c-28.8,8.1,48.6,255,67.3,305.1c4.2,11.4,12.6,31.8,31.7,40.2c16.5,7.2,33.6,2.2,39.6,0
		c38.7-13.9,47-63.1,97-184.7c6.5-15.7,8.7-41.6,17.8-42.2c7.7-0.5,17.8,26.1,19.8,34.1c8.9,35.9,20.6,41.3,29.7,142.5
		c4,44.2,27.7,62.2,49.5,58.2c4.1-0.8,14.1,0.2,31.7-14.1c27.7-22.4,39.8-51.7,41.6-56.2c30.2-75.7,43.1-155.1,64.8-243.7
		c9.2-37.8,15.4-58.2,12.4-59.4c-5.5-2.1-42.1,58.5-65.3,132.5c-10.3,32.6-17.9,68-43.6,116.4c-22.6,42.8-31.2,42.7-33.7,42.2
		c-12.9-2.7-7.3-45-21.8-108.4c-10.2-44.9-24.6-107.9-63.4-118.4c-26.7-7.3-55,12.9-59.4,16.1c-16.7,11.9-24.4,26.3-33.7,44.2
		c-18.5,35.8-17.1,55.4-37.6,112.4c-14.6,40.6-19.4,42.1-21.8,42.2c-14.2,0.1-18.6-56.5-43.6-124.5C67,159.9,25.4,76.3,8.3,81.1z"/>
	<g>
		<path class="st4" d="M12.2,97.2c3.2-1.3,9.5,3.9,11.9,10c2.2,5.6-0.5,8,2,12c3.2,5.2,8.8,3.3,11.9,8c3.2,5-1.9,9,0,16.1
			c2.8,10.1,15.6,10.7,15.8,18.1c0.2,6.3-9.3,9.8-7.9,14.1c1,3.1,6.3,1.9,11.9,6c1.5,1.1,4.9,4,7.9,12
			c6.2,16.9,27.6,103.7,35.6,132.5c4.7,17,10.3,33.5,21.8,36.1c1.6,0.4,7.3,1.4,15.8-4c26.5-16.8,34.3-66.9,53.5-124.5
			c20.7-62.3,35.2-74.7,47.5-80.3c3-1.3,19.8-14.1,41.6-2c10.7,5.9,16.9,14.2,21.8,20.1c31.7,38.1,25.7,84.3,39.6,162.6
			c0.9,5.2,0.2,30.4,7.9,38.1c7.7,7.8,13.8,7.7,23.8,4c17.3-6.4,31.1-37.1,35.6-48.2c24.7-60.8,54.8-158.3,67.3-190.7
			c1.7-4.4,6.3-16.5,7.9-16.1c0.4,0.1,1.5,1.5-2,20.1C471.6,205.6,457.8,249.8,432,318c-6,15.8-9.9,28.1-21.8,50.2
			c-3.3,6.1-21.1,31.2-43.6,32.1c-3.8,0.1-18.5,0.8-29.7-10c-11.9-11.5-11.6-40.5-13.9-64.2c-5.9-62.2-13.9-116.4-37.6-146.5
			c-5.9-7.4-17.8-18.1-25.7-16.1c-14.7,3.7-23.7,18.6-27.7,26.1c-23.6,44-35.6,90.3-35.6,90.3c-10.5,40.4-14.8,66.6-31.7,88.3
			c-5.2,6.8-14.2,16.3-27.7,20.1c-3.7,1-12.3,3.3-21.8,0c-7.2-2.5-12.2-7.4-15.8-12C70,339.1,42.7,212.2,36,197.6
			c-0.7-1.5-2.8-5.3-2-10c0.9-5.4,4.9-7.6,4-10c-1.2-3.2-8.5-0.3-11.9-4c-4.7-5.1,4.5-15,0-24.1c-3.3-6.8-10.8-6-11.9-12
			c-1-5.6,4.9-7.9,4-14.1c-0.9-5.3-5.7-5.4-7.9-12C8.3,105.7,9.2,98.4,12.2,97.2z"/>
		<path class="st5" d="M364.4,401c-11.5,0-20.8-3.4-27.8-10.3c-9.9-9.6-11.5-30.9-13-51.5c-0.3-4.4-0.7-8.9-1.1-13.2
			c-5.4-56.8-12.8-114.9-37.5-146.2c-5.6-7.2-17.5-17.8-25.1-15.8c-10.3,2.6-19.5,11.3-27.3,25.8c-23.3,43.4-35.5,89.7-35.6,90.2
			c-1.7,6.4-3.2,12.4-4.6,18.2c-7.5,30.2-12.9,52-27.2,70.4c-8.3,10.7-17.5,17.3-28,20.3c-3.4,0.9-12.3,3.5-22.2,0
			c-6-2.1-11.3-6.1-16.1-12.2c-21.4-27-41.6-101.4-53.7-145.8c-4.6-16.8-7.9-29-9.7-33l-0.2-0.4c-0.8-1.8-2.6-5.5-1.8-10
			c0.5-2.9,1.8-4.8,2.8-6.4c1-1.5,1.5-2.4,1.2-3.3c-0.5-1.2-2.3-1.3-4.4-1.4c-2.6-0.1-5.5-0.3-7.4-2.4c-2.5-2.7-1.4-6.6-0.3-10.7
			c1.1-4.2,2.4-9.1,0.2-13.5c-1.5-3.1-4-4.6-6.3-5.9c-2.6-1.5-5-2.9-5.6-6.3c-0.5-3,0.7-5.1,2-7.2c1.2-2.1,2.4-4,2-6.9
			c-0.4-2.5-1.7-3.7-3.3-5.2c-1.6-1.5-3.5-3.3-4.6-6.7C7.8,106,8.4,98.1,12,96.6c1-0.4,2.3-0.3,3.7,0.3c3.5,1.5,7.3,5.8,9,10.1
			c1.1,2.9,1,4.9,0.9,6.7c-0.1,1.8-0.2,3.3,1,5.2c1.5,2.5,3.6,3.2,5.8,4c2.2,0.8,4.4,1.5,6,4c1.8,2.9,1.2,5.4,0.5,8.1
			c-0.6,2.4-1.3,4.9-0.4,8.1c1.4,5,5.4,7.7,9,10c3.5,2.2,6.7,4.4,6.9,8.2c0.1,3.6-2.5,6.2-4.8,8.5c-2,2-3.7,3.7-3.1,5.3
			c0.4,1.2,1.6,1.6,4,2.3c2.2,0.6,4.9,1.4,7.7,3.4c3.3,2.4,6,6.5,8.1,12.3c4,10.9,14.2,50.4,23.3,85.3c4.9,19,9.5,36.9,12.4,47.2
			c4.6,16.6,10.1,33.1,21.3,35.7c2.5,0.6,7.9,0.8,15.4-3.9c19.9-12.6,29.1-44.1,40.9-84c3.8-12.9,7.7-26.2,12.4-40.2
			c19.2-57.7,33-74,47.9-80.7c0.3-0.1,0.8-0.4,1.4-0.8c5.2-3,21-12.1,40.7-1.2c9.8,5.4,16,13,20.6,18.6c0.5,0.6,0.9,1.1,1.4,1.6
			c22.5,27.1,26.1,58.3,31.2,101.6c2.1,17.9,4.5,38.3,8.5,61.3c0.2,1.2,0.3,3.5,0.5,6.3c0.5,9.6,1.4,25.7,7.2,31.5
			c7.7,7.7,13.6,7.4,23.1,3.9c17.3-6.4,31.4-38.2,35.3-47.8c15.4-37.9,32.9-89.9,46.9-131.7c8.4-25.1,15.7-46.8,20.4-59
			c6.1-15.7,7.6-16.8,8.7-16.4c0.8,0.2,2.2,0.6-1.5,20.8c-12.4,66.9-27.1,112-51.5,176.8c-0.9,2.3-1.7,4.5-2.5,6.6
			c-4.7,12.7-9.2,24.7-19.4,43.6c-3.6,6.6-21.5,31.6-44.1,32.4C365.9,401,365.1,401,364.4,401z M261.8,162.6
			c8.1,0,18.6,9.5,24.1,16.5c24.9,31.6,32.3,89.9,37.8,146.9c0.4,4.3,0.7,8.8,1.1,13.2c1.5,20.3,3,41.4,12.6,50.7
			c7.2,7,17,10.3,29.2,9.9c22.1-0.9,39.6-25.3,43.1-31.8c10.2-18.9,14.6-30.8,19.3-43.5c0.8-2.2,1.6-4.4,2.5-6.6
			c24.4-64.7,39-109.7,51.5-176.6c2.8-14.8,2.6-18.4,2.4-19.2c-0.7,0.6-2.6,3.7-7.1,15.5c-4.7,12.2-12,33.9-20.4,59
			c-14,41.8-31.5,93.8-46.9,131.7c-5.1,12.5-18.7,42.1-36,48.5c-9.8,3.6-16.3,4-24.4-4.2c-6.1-6.2-7.1-22.6-7.6-32.3
			c-0.2-2.8-0.3-5-0.5-6.1c-4.1-23-6.5-43.4-8.6-61.4c-5-43.1-8.7-74.2-30.9-101c-0.4-0.5-0.9-1.1-1.4-1.6
			c-4.7-5.8-10.6-13-20.2-18.3c-19.1-10.6-34.5-1.7-39.5,1.2c-0.7,0.4-1.2,0.7-1.5,0.8c-12.6,5.7-27,19.3-47.2,79.9
			c-4.6,13.9-8.6,27.3-12.3,40.1c-11.8,40.1-21.1,71.8-41.4,84.7c-7.9,5-13.6,4.7-16.3,4.1c-11.9-2.8-17.5-19.6-22.2-36.6
			c-2.9-10.3-7.5-28.2-12.4-47.2c-9-34.9-19.2-74.4-23.2-85.2c-2-5.6-4.6-9.5-7.7-11.8c-2.6-1.9-5.2-2.7-7.3-3.3
			c-2.3-0.7-4.2-1.2-4.8-3.1c-0.8-2.4,1.2-4.5,3.4-6.6c2.1-2.2,4.6-4.6,4.5-7.6c-0.1-3.2-3-5.1-6.3-7.2c-3.8-2.4-8-5.2-9.5-10.7
			c-1-3.5-0.2-6.3,0.4-8.8c0.7-2.6,1.2-4.7-0.3-7.1c-1.4-2.1-3.3-2.8-5.4-3.5c-2.3-0.8-4.7-1.6-6.5-4.5c-1.4-2.2-1.3-4-1.2-5.9
			c0.1-1.8,0.2-3.6-0.8-6.2c-1.5-4-5.1-8-8.3-9.4c-1.1-0.5-2.1-0.6-2.8-0.3l-0.2-0.6l0.2,0.6c-2.6,1.1-3.4,8-1.6,13.3
			c1.1,3.1,2.7,4.7,4.3,6.2c1.6,1.6,3.2,3,3.6,5.9c0.5,3.3-0.9,5.7-2.1,7.8c-1.2,1.9-2.3,3.8-1.8,6.3c0.5,2.8,2.6,4,5,5.4
			c2.4,1.4,5.1,3,6.8,6.4c2.4,4.9,1.1,10-0.1,14.4c-1.1,3.9-2,7.3,0,9.5c1.6,1.7,4.2,1.9,6.6,2c2.4,0.1,4.7,0.3,5.4,2.2
			c0.6,1.5-0.3,2.9-1.3,4.4c-1,1.5-2.2,3.3-2.6,5.9c-0.7,4.1,1,7.6,1.7,9.3l0.2,0.4c1.9,4.1,5.2,16.3,9.8,33.2
			C58.4,274.8,78.6,349,99.8,375.8c4.7,5.9,9.8,9.8,15.6,11.8c9.4,3.3,18.1,0.9,21.4,0c10.3-2.9,19.3-9.4,27.4-19.9
			c14.1-18.2,19.5-39.9,27-69.9c1.4-5.8,2.9-11.8,4.6-18.2c0.1-0.5,12.3-46.9,35.7-90.5c8-14.8,17.4-23.7,28.1-26.4
			C260.3,162.6,261.1,162.6,261.8,162.6z"/>
	</g>
	<ellipse class="st6" cx="289.4" cy="215.6" rx="5.9" ry="8"/>
	<ellipse class="st6" cx="281.5" cy="197.6" rx="5.9" ry="8"/>
	<ellipse class="st6" cx="267.7" cy="185.5" rx="5.9" ry="8"/>
	<ellipse class="st6" cx="295.4" cy="237.7" rx="5.9" ry="8"/>
	<ellipse class="st6" cx="303.3" cy="259.8" rx="5.9" ry="8"/>
	<ellipse class="st6" cx="309.2" cy="283.9" rx="5.9" ry="8"/>
	<ellipse class="st6" cx="311.2" cy="306" rx="5.9" ry="8"/>
	<ellipse class="st6" cx="249.8" cy="189.5" rx="5.9" ry="8"/>
	<ellipse class="st6" cx="238" cy="213.6" rx="5.9" ry="8"/>
	<ellipse class="st6" cx="226.1" cy="237.7" rx="5.9" ry="8"/>
	<ellipse class="st6" cx="220.1" cy="259.8" rx="5.9" ry="8"/>
	<ellipse class="st6" cx="216.2" cy="281.9" rx="5.9" ry="8"/>
	<path class="st3" d="M8.3,81.1c-28.8,8.1,48.6,255,67.3,305.1c4.2,11.4,12.6,31.8,31.7,40.2c16.5,7.2,33.6,2.2,39.6,0
		c38.7-13.9,47-63.1,97-184.7c6.5-15.7,8.7-41.6,17.8-42.2c7.7-0.5,17.8,26.1,19.8,34.1c8.9,35.9,20.6,41.3,29.7,142.5
		c4,44.2,27.7,62.2,49.5,58.2c4.1-0.8,14.1,0.2,31.7-14.1c27.7-22.4,39.8-51.7,41.6-56.2c30.2-75.7,43.1-155.1,64.8-243.7
		c9.2-37.8,15.4-58.2,12.4-59.4c-5.5-2.1-42.1,58.5-65.3,132.5c-10.3,32.6-17.9,68-43.6,116.4c-22.6,42.8-31.2,42.7-33.7,42.2
		c-12.9-2.7-7.3-45-21.8-108.4c-10.2-44.9-24.6-107.9-63.4-118.4c-26.7-7.3-55,12.9-59.4,16.1c-16.7,11.9-24.4,26.3-33.7,44.2
		c-18.5,35.8-17.1,55.4-37.6,112.4c-14.6,40.6-19.4,42.1-21.8,42.2c-14.2,0.1-18.6-56.5-43.6-124.5C67,159.9,25.4,76.3,8.3,81.1z"/>
	<g>
		<path class="st4" d="M12.2,97.2c3.2-1.3,9.5,3.9,11.9,10c2.2,5.6-0.5,8,2,12c3.2,5.2,8.8,3.3,11.9,8c3.2,5-1.9,9,0,16.1
			c2.8,10.1,15.6,10.7,15.8,18.1c0.2,6.3-9.3,9.8-7.9,14.1c1,3.1,6.3,1.9,11.9,6c1.5,1.1,4.9,4,7.9,12
			c6.2,16.9,27.6,103.7,35.6,132.5c4.7,17,10.3,33.5,21.8,36.1c1.6,0.4,7.3,1.4,15.8-4c26.5-16.8,34.3-66.9,53.5-124.5
			c20.7-62.3,35.2-74.7,47.5-80.3c3-1.3,19.8-14.1,41.6-2c10.7,5.9,16.9,14.2,21.8,20.1c31.7,38.1,25.7,84.3,39.6,162.6
			c0.9,5.2,0.2,30.4,7.9,38.1c7.7,7.8,13.8,7.7,23.8,4c17.3-6.4,31.1-37.1,35.6-48.2c24.7-60.8,54.8-158.3,67.3-190.7
			c1.7-4.4,6.3-16.5,7.9-16.1c0.4,0.1,1.5,1.5-2,20.1C471.6,205.6,457.8,249.8,432,318c-6,15.8-9.9,28.1-21.8,50.2
			c-3.3,6.1-21.1,31.2-43.6,32.1c-3.8,0.1-18.5,0.8-29.7-10c-11.9-11.5-11.6-40.5-13.9-64.2c-5.9-62.2-13.9-116.4-37.6-146.5
			c-5.9-7.4-17.8-18.1-25.7-16.1c-14.7,3.7-23.7,18.6-27.7,26.1c-23.6,44-35.6,90.3-35.6,90.3c-10.5,40.4-14.8,66.6-31.7,88.3
			c-5.2,6.8-14.2,16.3-27.7,20.1c-3.7,1-12.3,3.3-21.8,0c-7.2-2.5-12.2-7.4-15.8-12C70,339.1,42.7,212.2,36,197.6
			c-0.7-1.5-2.8-5.3-2-10c0.9-5.4,4.9-7.6,4-10c-1.2-3.2-8.5-0.3-11.9-4c-4.7-5.1,4.5-15,0-24.1c-3.3-6.8-10.8-6-11.9-12
			c-1-5.6,4.9-7.9,4-14.1c-0.9-5.3-5.7-5.4-7.9-12C8.3,105.7,9.2,98.4,12.2,97.2z"/>
		<path class="st5" d="M364.4,401c-11.5,0-20.8-3.4-27.8-10.3c-9.9-9.6-11.5-30.9-13-51.5c-0.3-4.4-0.7-8.9-1.1-13.2
			c-5.4-56.8-12.8-114.9-37.5-146.2c-5.6-7.2-17.5-17.8-25.1-15.8c-10.3,2.6-19.5,11.3-27.3,25.8c-23.3,43.4-35.5,89.7-35.6,90.2
			c-1.7,6.4-3.2,12.4-4.6,18.2c-7.5,30.2-12.9,52-27.2,70.4c-8.3,10.7-17.5,17.3-28,20.3c-3.4,0.9-12.3,3.5-22.2,0
			c-6-2.1-11.3-6.1-16.1-12.2c-21.4-27-41.6-101.4-53.7-145.8c-4.6-16.8-7.9-29-9.7-33l-0.2-0.4c-0.8-1.8-2.6-5.5-1.8-10
			c0.5-2.9,1.8-4.8,2.8-6.4c1-1.5,1.5-2.4,1.2-3.3c-0.5-1.2-2.3-1.3-4.4-1.4c-2.6-0.1-5.5-0.3-7.4-2.4c-2.5-2.7-1.4-6.6-0.3-10.7
			c1.1-4.2,2.4-9.1,0.2-13.5c-1.5-3.1-4-4.6-6.3-5.9c-2.6-1.5-5-2.9-5.6-6.3c-0.5-3,0.7-5.1,2-7.2c1.2-2.1,2.4-4,2-6.9
			c-0.4-2.5-1.7-3.7-3.3-5.2c-1.6-1.5-3.5-3.3-4.6-6.7C7.8,106,8.4,98.1,12,96.6c1-0.4,2.3-0.3,3.7,0.3c3.5,1.5,7.3,5.8,9,10.1
			c1.1,2.9,1,4.9,0.9,6.7c-0.1,1.8-0.2,3.3,1,5.2c1.5,2.5,3.6,3.2,5.8,4c2.2,0.8,4.4,1.5,6,4c1.8,2.9,1.2,5.4,0.5,8.1
			c-0.6,2.4-1.3,4.9-0.4,8.1c1.4,5,5.4,7.7,9,10c3.5,2.2,6.7,4.4,6.9,8.2c0.1,3.6-2.5,6.2-4.8,8.5c-2,2-3.7,3.7-3.1,5.3
			c0.4,1.2,1.6,1.6,4,2.3c2.2,0.6,4.9,1.4,7.7,3.4c3.3,2.4,6,6.5,8.1,12.3c4,10.9,14.2,50.4,23.3,85.3c4.9,19,9.5,36.9,12.4,47.2
			c4.6,16.6,10.1,33.1,21.3,35.7c2.5,0.6,7.9,0.8,15.4-3.9c19.9-12.6,29.1-44.1,40.9-84c3.8-12.9,7.7-26.2,12.4-40.2
			c19.2-57.7,33-74,47.9-80.7c0.3-0.1,0.8-0.4,1.4-0.8c5.2-3,21-12.1,40.7-1.2c9.8,5.4,16,13,20.6,18.6c0.5,0.6,0.9,1.1,1.4,1.6
			c22.5,27.1,26.1,58.3,31.2,101.6c2.1,17.9,4.5,38.3,8.5,61.3c0.2,1.2,0.3,3.5,0.5,6.3c0.5,9.6,1.4,25.7,7.2,31.5
			c7.7,7.7,13.6,7.4,23.1,3.9c17.3-6.4,31.4-38.2,35.3-47.8c15.4-37.9,32.9-89.9,46.9-131.7c8.4-25.1,15.7-46.8,20.4-59
			c6.1-15.7,7.6-16.8,8.7-16.4c0.8,0.2,2.2,0.6-1.5,20.8c-12.4,66.9-27.1,112-51.5,176.8c-0.9,2.3-1.7,4.5-2.5,6.6
			c-4.7,12.7-9.2,24.7-19.4,43.6c-3.6,6.6-21.5,31.6-44.1,32.4C365.9,401,365.1,401,364.4,401z M261.8,162.6
			c8.1,0,18.6,9.5,24.1,16.5c24.9,31.6,32.3,89.9,37.8,146.9c0.4,4.3,0.7,8.8,1.1,13.2c1.5,20.3,3,41.4,12.6,50.7
			c7.2,7,17,10.3,29.2,9.9c22.1-0.9,39.6-25.3,43.1-31.8c10.2-18.9,14.6-30.8,19.3-43.5c0.8-2.2,1.6-4.4,2.5-6.6
			c24.4-64.7,39-109.7,51.5-176.6c2.8-14.8,2.6-18.4,2.4-19.2c-0.7,0.6-2.6,3.7-7.1,15.5c-4.7,12.2-12,33.9-20.4,59
			c-14,41.8-31.5,93.8-46.9,131.7c-5.1,12.5-18.7,42.1-36,48.5c-9.8,3.6-16.3,4-24.4-4.2c-6.1-6.2-7.1-22.6-7.6-32.3
			c-0.2-2.8-0.3-5-0.5-6.1c-4.1-23-6.5-43.4-8.6-61.4c-5-43.1-8.7-74.2-30.9-101c-0.4-0.5-0.9-1.1-1.4-1.6
			c-4.7-5.8-10.6-13-20.2-18.3c-19.1-10.6-34.5-1.7-39.5,1.2c-0.7,0.4-1.2,0.7-1.5,0.8c-12.6,5.7-27,19.3-47.2,79.9
			c-4.6,13.9-8.6,27.3-12.3,40.1c-11.8,40.1-21.1,71.8-41.4,84.7c-7.9,5-13.6,4.7-16.3,4.1c-11.9-2.8-17.5-19.6-22.2-36.6
			c-2.9-10.3-7.5-28.2-12.4-47.2c-9-34.9-19.2-74.4-23.2-85.2c-2-5.6-4.6-9.5-7.7-11.8c-2.6-1.9-5.2-2.7-7.3-3.3
			c-2.3-0.7-4.2-1.2-4.8-3.1c-0.8-2.4,1.2-4.5,3.4-6.6c2.1-2.2,4.6-4.6,4.5-7.6c-0.1-3.2-3-5.1-6.3-7.2c-3.8-2.4-8-5.2-9.5-10.7
			c-1-3.5-0.2-6.3,0.4-8.8c0.7-2.6,1.2-4.7-0.3-7.1c-1.4-2.1-3.3-2.8-5.4-3.5c-2.3-0.8-4.7-1.6-6.5-4.5c-1.4-2.2-1.3-4-1.2-5.9
			c0.1-1.8,0.2-3.6-0.8-6.2c-1.5-4-5.1-8-8.3-9.4c-1.1-0.5-2.1-0.6-2.8-0.3l-0.2-0.6l0.2,0.6c-2.6,1.1-3.4,8-1.6,13.3
			c1.1,3.1,2.7,4.7,4.3,6.2c1.6,1.6,3.2,3,3.6,5.9c0.5,3.3-0.9,5.7-2.1,7.8c-1.2,1.9-2.3,3.8-1.8,6.3c0.5,2.8,2.6,4,5,5.4
			c2.4,1.4,5.1,3,6.8,6.4c2.4,4.9,1.1,10-0.1,14.4c-1.1,3.9-2,7.3,0,9.5c1.6,1.7,4.2,1.9,6.6,2c2.4,0.1,4.7,0.3,5.4,2.2
			c0.6,1.5-0.3,2.9-1.3,4.4c-1,1.5-2.2,3.3-2.6,5.9c-0.7,4.1,1,7.6,1.7,9.3l0.2,0.4c1.9,4.1,5.2,16.3,9.8,33.2
			C58.4,274.8,78.6,349,99.8,375.8c4.7,5.9,9.8,9.8,15.6,11.8c9.4,3.3,18.1,0.9,21.4,0c10.3-2.9,19.3-9.4,27.4-19.9
			c14.1-18.2,19.5-39.9,27-69.9c1.4-5.8,2.9-11.8,4.6-18.2c0.1-0.5,12.3-46.9,35.7-90.5c8-14.8,17.4-23.7,28.1-26.4
			C260.3,162.6,261.1,162.6,261.8,162.6z"/>
	</g>
	<ellipse class="st6" cx="289.4" cy="215.6" rx="5.9" ry="8"/>
	<ellipse class="st6" cx="281.5" cy="197.6" rx="5.9" ry="8"/>
	<ellipse class="st6" cx="267.7" cy="185.5" rx="5.9" ry="8"/>
	<ellipse class="st6" cx="295.4" cy="237.7" rx="5.9" ry="8"/>
	<ellipse class="st6" cx="303.3" cy="259.8" rx="5.9" ry="8"/>
	<ellipse class="st6" cx="309.2" cy="283.9" rx="5.9" ry="8"/>
	<ellipse class="st6" cx="311.2" cy="306" rx="5.9" ry="8"/>
	<ellipse class="st6" cx="249.8" cy="189.5" rx="5.9" ry="8"/>
	<ellipse class="st6" cx="238" cy="213.6" rx="5.9" ry="8"/>
	<ellipse class="st6" cx="226.1" cy="237.7" rx="5.9" ry="8"/>
	<ellipse class="st6" cx="220.1" cy="259.8" rx="5.9" ry="8"/>
	<ellipse class="st6" cx="216.2" cy="281.9" rx="5.9" ry="8"/>
</g>
</svg>
